Rot-Proto-Roman102R.ufo
<glyph name="D" format="1">
  <advance width="786"/>
  <unicode hex="0044"/>
  <outline>
    <contour>
      <point x="384" y="703" type="curve"/>
      <point x="242" y="703"/>
      <point x="210" y="700"/>
      <point x="158" y="700" type="curve"/>
      <point x="114" y="700"/>
      <point x="47" y="703"/>
      <point x="25" y="705" type="curve"/>
      <point x="17" y="670" type="line"/>
      <point x="62" y="642"/>
      <point x="66" y="632"/>
      <point x="72" y="544" type="curve"/>
      <point x="75" y="498"/>
      <point x="72" y="278"/>
      <point x="68" y="109" type="curve"/>
      <point x="67" y="66"/>
      <point x="61" y="56"/>
      <point x="31" y="14" type="curve"/>
      <point x="47" y="-12" type="line"/>
      <point x="125" y="13"/>
      <point x="209" y="0"/>
      <point x="360" y="0" type="curve"/>
      <point x="602" y="0"/>
      <point x="749" y="155"/>
      <point x="749" y="355" type="curve"/>
      <point x="749" y="575"/>
      <point x="594" y="703"/>
    </contour>
    <contour>
      <point x="643" y="350" type="curve"/>
      <point x="643" y="109"/>
      <point x="511" y="11"/>
      <point x="167" y="42" type="curve"/>
      <point x="167" y="664" type="line"/>
      <point x="438" y="683"/>
      <point x="643" y="615"/>
    </contour>
  </outline>
</glyph>
<glyph name="E" format="1">
  <advance width="640"/>
  <unicode hex="0045"/>
  <outline>
    <contour>
      <point x="406" y="380" type="curve"/>
      <point x="202" y="380" type="line"/>
      <point x="202" y="340" type="line"/>
      <point x="395" y="340" type="line" smooth="yes"/>
      <point x="491" y="340"/>
      <point x="498" y="316"/>
      <point x="515" y="240" type="curve"/>
      <point x="548" y="243" type="line"/>
      <point x="543" y="316"/>
      <point x="540" y="391"/>
      <point x="546" y="473" type="curve"/>
      <point x="511" y="473" type="line"/>
      <point x="502" y="405"/>
      <point x="506" y="380"/>
    </contour>
    <contour>
      <point x="442" y="40" type="curve"/>
      <point x="223" y="40" type="line"/>
      <point x="212" y="223"/>
      <point x="211" y="438"/>
      <point x="219" y="660" type="curve"/>
      <point x="406" y="660" type="line" smooth="yes"/>
      <point x="526" y="660"/>
      <point x="526" y="657"/>
      <point x="556" y="588" type="curve"/>
      <point x="586" y="591" type="line"/>
      <point x="586" y="754" type="line"/>
      <point x="556" y="754" type="line"/>
      <point x="551" y="706"/>
      <point x="551" y="700"/>
      <point x="444" y="700" type="curve"/>
      <point x="230" y="700"/>
      <point x="109" y="702"/>
      <point x="44" y="705" type="curve"/>
      <point x="41" y="670" type="line"/>
      <point x="118" y="660"/>
      <point x="116" y="660"/>
      <point x="121" y="545" type="curve"/>
      <point x="123" y="498"/>
      <point x="126" y="296"/>
      <point x="120" y="156" type="curve"/>
      <point x="115" y="45"/>
      <point x="117" y="45"/>
      <point x="40" y="37" type="curve"/>
      <point x="40" y="-3" type="line"/>
      <point x="92" y="-1"/>
      <point x="142" y="0"/>
      <point x="198" y="0" type="curve"/>
      <point x="322" y="0"/>
      <point x="454" y="-1"/>
      <point x="600" y="-3" type="curve"/>
      <point x="600" y="127" type="line"/>
      <point x="566" y="127" type="line"/>
      <point x="560" y="64"/>
      <point x="537" y="40"/>
    </contour>
  </outline>
</glyph>
<glyph name="F" format="1">
  <advance width="588"/>
  <unicode hex="0046"/>
  <outline>
    <contour>
      <point x="421" y="351" type="curve"/>
      <point x="219" y="351" type="line"/>
      <point x="219" y="311" type="line"/>
      <point x="418" y="311" type="line" smooth="yes"/>
      <point x="495" y="311"/>
      <point x="495" y="312"/>
      <point x="509" y="273" type="curve"/>
      <point x="540" y="273" type="line"/>
      <point x="535" y="326"/>
      <point x="536" y="361"/>
      <point x="539" y="425" type="curve"/>
      <point x="511" y="425" type="line"/>
      <point x="497" y="351"/>
      <point x="490" y="351"/>
    </contour>
    <contour>
      <point x="231" y="137" type="curve"/>
      <point x="228" y="311"/>
      <point x="229" y="486"/>
      <point x="231" y="660" type="curve"/>
      <point x="388" y="660" type="line" smooth="yes"/>
      <point x="498" y="660"/>
      <point x="511" y="641"/>
      <point x="518" y="573" type="curve"/>
      <point x="548" y="573" type="line"/>
      <point x="548" y="700" type="line"/>
      <point x="183" y="700" type="line" smooth="yes"/>
      <point x="137" y="700"/>
      <point x="99" y="701"/>
      <point x="42" y="703" type="curve"/>
      <point x="40" y="668" type="line"/>
      <point x="135" y="664" type="line"/>
      <point x="140" y="493"/>
      <point x="137" y="235"/>
      <point x="134" y="137" type="curve"/>
      <point x="131" y="52"/>
      <point x="130" y="47"/>
      <point x="97" y="22" type="curve"/>
      <point x="97" y="-3" type="line"/>
      <point x="153" y="0"/>
      <point x="227" y="1"/>
      <point x="267" y="-3" type="curve"/>
      <point x="267" y="22" type="line"/>
      <point x="232" y="48"/>
      <point x="232" y="51"/>
    </contour>
  </outline>
</glyph>
<glyph name="G" format="1">
  <advance width="768"/>
  <unicode hex="0047"/>
  <outline>
    <contour>
      <point x="420" y="26" type="curve"/>
      <point x="522" y="26"/>
      <point x="575" y="62"/>
      <point x="611" y="92" type="curve"/>
      <point x="611" y="215" type="line" smooth="yes"/>
      <point x="611" y="305"/>
      <point x="609" y="305"/>
      <point x="505" y="310" type="curve"/>
      <point x="505" y="345" type="line"/>
      <point x="602" y="344"/>
      <point x="661" y="344"/>
      <point x="729" y="347" type="curve"/>
      <point x="729" y="312" type="line"/>
      <point x="703" y="306"/>
      <point x="703" y="304"/>
      <point x="703" y="244" type="curve"/>
      <point x="703" y="193"/>
      <point x="702" y="142"/>
      <point x="710" y="91" type="curve"/>
      <point x="635" y="29"/>
      <point x="543" y="-10"/>
      <point x="425" y="-10" type="curve"/>
      <point x="215" y="-10"/>
      <point x="40" y="102"/>
      <point x="40" y="354" type="curve"/>
      <point x="40" y="567"/>
      <point x="191" y="710"/>
      <point x="420" y="710" type="curve"/>
      <point x="520" y="710"/>
      <point x="602" y="687"/>
      <point x="675" y="646" type="curve"/>
      <point x="672" y="434" type="line"/>
      <point x="632" y="434" type="line"/>
      <point x="632" y="568"/>
      <point x="544" y="675"/>
      <point x="411" y="675" type="curve"/>
      <point x="219" y="675"/>
      <point x="146" y="525"/>
      <point x="146" y="354" type="curve"/>
      <point x="146" y="146"/>
      <point x="237" y="26"/>
    </contour>
  </outline>
</glyph>
<glyph name="I" format="1">
  <advance width="349"/>
  <unicode hex="0049"/>
  <outline>
    <contour>
      <point x="198" y="82" type="curve"/>
      <point x="198" y="626" type="line" smooth="yes"/>
      <point x="198" y="657"/>
      <point x="199" y="658"/>
      <point x="290" y="669" type="curve"/>
      <point x="290" y="703" type="line"/>
      <point x="216" y="701"/>
      <point x="115" y="700"/>
      <point x="45" y="703" type="curve"/>
      <point x="45" y="669" type="line"/>
      <point x="112" y="657"/>
      <point x="102" y="657"/>
      <point x="102" y="633" type="curve"/>
      <point x="104" y="88" type="line" smooth="yes"/>
      <point x="104" y="37"/>
      <point x="103" y="37"/>
      <point x="40" y="33" type="curve"/>
      <point x="40" y="-3" type="line"/>
      <point x="119" y="0"/>
      <point x="194" y="2"/>
      <point x="275" y="-3" type="curve"/>
      <point x="275" y="34" type="line"/>
      <point x="199" y="40"/>
      <point x="198" y="41"/>
    </contour>
  </outline>
</glyph>
<glyph name="K" format="1">
  <advance width="735"/>
  <unicode hex="004B"/>
  <outline>
    <contour>
      <point x="198" y="389" type="line"/>
      <point x="198" y="339" type="line"/>
      <point x="485" y="564" type="line" smooth="yes"/>
      <point x="571" y="631"/>
      <point x="596" y="656"/>
      <point x="669" y="663" type="curve"/>
      <point x="669" y="703" type="line"/>
      <point x="590" y="701"/>
      <point x="511" y="701"/>
      <point x="432" y="703" type="curve"/>
      <point x="432" y="669" type="line"/>
      <point x="493" y="661"/>
      <point x="507" y="650"/>
      <point x="447" y="599" type="curve"/>
    </contour>
    <contour>
      <point x="199" y="82" type="curve"/>
      <point x="199" y="626" type="line" smooth="yes"/>
      <point x="199" y="657"/>
      <point x="200" y="658"/>
      <point x="311" y="669" type="curve"/>
      <point x="311" y="703" type="line"/>
      <point x="217" y="701"/>
      <point x="116" y="700"/>
      <point x="36" y="703" type="curve"/>
      <point x="36" y="669" type="line"/>
      <point x="113" y="657"/>
      <point x="103" y="657"/>
      <point x="103" y="633" type="curve"/>
      <point x="105" y="68" type="line" smooth="yes"/>
      <point x="105" y="37"/>
      <point x="114" y="37"/>
      <point x="41" y="33" type="curve"/>
      <point x="41" y="-3" type="line"/>
      <point x="120" y="0"/>
      <point x="265" y="0"/>
      <point x="315" y="-3" type="curve"/>
      <point x="315" y="34" type="line"/>
      <point x="200" y="40"/>
      <point x="199" y="41"/>
    </contour>
    <contour>
      <point x="542" y="141" type="curve"/>
      <point x="269" y="402" type="line"/>
      <point x="183" y="348" type="line"/>
      <point x="450" y="108" type="line" smooth="yes"/>
      <point x="507" y="57"/>
      <point x="486" y="37"/>
      <point x="451" y="34" type="curve"/>
      <point x="451" y="-3" type="line"/>
      <point x="536" y="0"/>
      <point x="620" y="0"/>
      <point x="705" y="-3" type="curve"/>
      <point x="705" y="34" type="line"/>
      <point x="629" y="42"/>
      <point x="617" y="70"/>
    </contour>
  </outline>
</glyph>
<glyph name="L" format="1">
  <advance width="595"/>
  <unicode hex="004C"/>
  <outline>
    <contour>
      <point x="40" y="703" type="curve"/>
      <point x="40" y="668" type="line"/>
      <point x="117" y="656"/>
      <point x="107" y="656"/>
      <point x="107" y="632" type="curve"/>
      <point x="107" y="474"/>
      <point x="109" y="250"/>
      <point x="109" y="67" type="curve"/>
      <point x="109" y="36"/>
      <point x="118" y="36"/>
      <point x="45" y="32" type="curve"/>
      <point x="45" y="-3" type="line"/>
      <point x="50" y="-2" type="line"/>
      <point x="124" y="0"/>
      <point x="208" y="0"/>
      <point x="585" y="0" type="curve"/>
      <point x="585" y="150" type="line"/>
      <point x="555" y="150" type="line"/>
      <point x="533" y="90"/>
      <point x="515" y="50"/>
      <point x="413" y="47" type="curve"/>
      <point x="204" y="41" type="line"/>
      <point x="202" y="625" type="line"/>
      <point x="202" y="656"/>
      <point x="203" y="657"/>
      <point x="314" y="668" type="curve"/>
      <point x="314" y="703" type="line"/>
      <point x="220" y="701"/>
      <point x="120" y="700"/>
    </contour>
  </outline>
</glyph>
<glyph name="N" format="1">
  <advance width="881"/>
  <unicode hex="004E"/>
  <outline>
    <contour>
      <point x="837" y="668" type="curve"/>
      <point x="837" y="703" type="line"/>
      <point x="796" y="700"/>
      <point x="640" y="699"/>
      <point x="574" y="703" type="curve"/>
      <point x="574" y="668" type="line"/>
      <point x="674" y="661"/>
      <point x="698" y="666"/>
      <point x="700" y="574" type="curve"/>
      <point x="709" y="144" type="line"/>
      <point x="191" y="658" type="line"/>
      <point x="308" y="670" type="line"/>
      <point x="308" y="703" type="line"/>
      <point x="233" y="700"/>
      <point x="104" y="699"/>
      <point x="40" y="703" type="curve"/>
      <point x="40" y="668" type="line"/>
      <point x="121" y="662"/>
      <point x="118" y="665"/>
      <point x="116" y="575" type="curve"/>
      <point x="105" y="85" type="line" smooth="yes"/>
      <point x="104" y="33"/>
      <point x="86" y="42"/>
      <point x="46" y="32" type="curve"/>
      <point x="46" y="-3" type="line"/>
      <point x="120" y="1"/>
      <point x="242" y="1"/>
      <point x="308" y="-3" type="curve"/>
      <point x="308" y="32" type="line"/>
      <point x="193" y="40"/>
      <point x="190" y="34"/>
      <point x="188" y="93" type="curve"/>
      <point x="174" y="536" type="line"/>
      <point x="356" y="363"/>
      <point x="540" y="182"/>
      <point x="712" y="2" type="curve"/>
      <point x="772" y="-2" type="line"/>
      <point x="766" y="170"/>
      <point x="773" y="402"/>
      <point x="777" y="604" type="curve"/>
      <point x="778" y="660"/>
      <point x="774" y="661"/>
    </contour>
  </outline>
</glyph>
<glyph name="T" format="1">
  <advance width="737"/>
  <unicode hex="0054"/>
  <outline>
    <contour>
      <point x="68" y="726" type="curve"/>
      <point x="28" y="726" type="line"/>
      <point x="30" y="516" type="line"/>
      <point x="65" y="516" type="line"/>
      <point x="71" y="600"/>
      <point x="65" y="607"/>
      <point x="143" y="607" type="curve"/>
      <point x="568" y="607" type="line" smooth="yes"/>
      <point x="636" y="607"/>
      <point x="629" y="606"/>
      <point x="654" y="519" type="curve"/>
      <point x="687" y="526" type="line"/>
      <point x="647" y="734" type="line"/>
      <point x="601" y="730" type="line"/>
      <point x="615" y="670"/>
      <point x="616" y="670"/>
      <point x="537" y="670" type="curve"/>
      <point x="133" y="670" type="line" smooth="yes"/>
      <point x="72" y="670"/>
      <point x="68" y="678"/>
    </contour>
    <contour>
      <point x="403" y="107" type="curve"/>
      <point x="403" y="617" type="line"/>
      <point x="308" y="617" type="line"/>
      <point x="308" y="149" type="line" smooth="yes"/>
      <point x="308" y="40"/>
      <point x="308" y="40"/>
      <point x="229" y="32" type="curve"/>
      <point x="229" y="-3" type="line"/>
      <point x="303" y="0"/>
      <point x="454" y="1"/>
      <point x="535" y="-3" type="curve"/>
      <point x="535" y="32" type="line"/>
      <point x="403" y="41"/>
      <point x="403" y="41"/>
    </contour>
  </outline>
</glyph>
<glyph name="V" format="1">
  <advance width="903"/>
  <unicode hex="0056"/>
  <outline>
    <contour>
      <point x="461" y="43" type="line"/>
      <point x="486" y="79" type="line"/>
      <point x="232" y="564" type="line" smooth="yes"/>
      <point x="192" y="640"/>
      <point x="190" y="646"/>
      <point x="272" y="673" type="curve"/>
      <point x="266" y="708" type="line"/>
      <point x="33" y="692" type="line"/>
      <point x="35" y="663" type="line"/>
      <point x="66" y="645"/>
      <point x="86" y="617"/>
      <point x="131" y="532" type="curve"/>
      <point x="218" y="367"/>
      <point x="393" y="60"/>
      <point x="429" y="-7" type="curve"/>
      <point x="487" y="-2" type="line"/>
      <point x="785" y="601" type="line" smooth="yes"/>
      <point x="812" y="656"/>
      <point x="820" y="668"/>
      <point x="880" y="668" type="curve"/>
      <point x="880" y="703" type="line"/>
      <point x="788" y="700"/>
      <point x="730" y="699"/>
      <point x="636" y="703" type="curve"/>
      <point x="636" y="668" type="line"/>
      <point x="748" y="662"/>
      <point x="728" y="654"/>
      <point x="689" y="565" type="curve"/>
    </contour>
  </outline>
</glyph>
<glyph name="W" format="1">
  <advance width="1242"/>
  <unicode hex="0057"/>
  <outline>
    <contour>
      <point x="418" y="43" type="line"/>
      <point x="443" y="110" type="line"/>
      <point x="236" y="564" type="line" smooth="yes"/>
      <point x="200" y="644"/>
      <point x="192" y="646"/>
      <point x="274" y="673" type="curve"/>
      <point x="270" y="708" type="line"/>
      <point x="30" y="690" type="line"/>
      <point x="32" y="661" type="line"/>
      <point x="63" y="643"/>
      <point x="83" y="617"/>
      <point x="128" y="532" type="curve"/>
      <point x="215" y="367"/>
      <point x="350" y="60"/>
      <point x="386" y="-7" type="curve"/>
      <point x="444" y="-2" type="line"/>
      <point x="702" y="601" type="line" smooth="yes"/>
      <point x="726" y="657"/>
      <point x="737" y="668"/>
      <point x="797" y="668" type="curve"/>
      <point x="797" y="703" type="line"/>
      <point x="705" y="700"/>
      <point x="647" y="699"/>
      <point x="553" y="703" type="curve"/>
      <point x="553" y="668" type="line"/>
      <point x="665" y="662"/>
      <point x="641" y="657"/>
      <point x="608" y="565" type="curve"/>
    </contour>
    <contour>
      <point x="823" y="100" type="line"/>
      <point x="647" y="510" type="line"/>
      <point x="588" y="390" type="line"/>
      <point x="766" y="-7" type="line"/>
      <point x="824" y="-2" type="line"/>
      <point x="1122" y="601" type="line" smooth="yes"/>
      <point x="1149" y="656"/>
      <point x="1157" y="668"/>
      <point x="1217" y="668" type="curve"/>
      <point x="1217" y="703" type="line"/>
      <point x="1125" y="700"/>
      <point x="1067" y="699"/>
      <point x="973" y="703" type="curve"/>
      <point x="973" y="668" type="line"/>
      <point x="1085" y="662"/>
      <point x="1065" y="654"/>
      <point x="1026" y="565" type="curve"/>
      <point x="798" y="43" type="line"/>
    </contour>
  </outline>
</glyph>
<glyph name="X" format="1">
  <advance width="923"/>
  <unicode hex="0058"/>
  <outline>
    <contour>
      <point x="31" y="668" type="curve"/>
      <point x="31" y="703" type="line"/>
      <point x="97" y="699"/>
      <point x="248" y="700"/>
      <point x="330" y="703" type="curve"/>
      <point x="330" y="668" type="line"/>
      <point x="275" y="666"/>
      <point x="282" y="657"/>
      <point x="319" y="613" type="curve"/>
      <point x="703" y="155" type="line" smooth="yes"/>
      <point x="802" y="36"/>
      <point x="802" y="36"/>
      <point x="908" y="32" type="curve"/>
      <point x="908" y="-3" type="line"/>
      <point x="862" y="-1"/>
      <point x="811" y="0"/>
      <point x="768" y="0" type="curve"/>
      <point x="713" y="0"/>
      <point x="664" y="-1"/>
      <point x="610" y="-3" type="curve"/>
      <point x="610" y="32" type="line"/>
      <point x="671" y="37"/>
      <point x="662" y="45"/>
      <point x="624" y="90" type="curve"/>
      <point x="250" y="537" type="line" smooth="yes"/>
      <point x="152" y="654"/>
      <point x="155" y="656"/>
    </contour>
    <contour>
      <point x="248" y="170" type="curve"/>
      <point x="426" y="362" type="line"/>
      <point x="460" y="320" type="line"/>
      <point x="278" y="104" type="line" smooth="yes"/>
      <point x="222" y="38"/>
      <point x="225" y="37"/>
      <point x="319" y="32" type="curve"/>
      <point x="319" y="-3" type="line"/>
      <point x="238" y="0"/>
      <point x="118" y="1"/>
      <point x="25" y="-3" type="curve"/>
      <point x="25" y="32" type="line"/>
      <point x="156" y="38"/>
      <point x="135" y="49"/>
    </contour>
    <contour>
      <point x="661" y="547" type="curve"/>
      <point x="474" y="340" type="line"/>
      <point x="447" y="387" type="line"/>
      <point x="631" y="603" type="line" smooth="yes"/>
      <point x="672" y="652"/>
      <point x="662" y="660"/>
      <point x="579" y="669" type="curve"/>
      <point x="579" y="703" type="line"/>
      <point x="666" y="700"/>
      <point x="786" y="699"/>
      <point x="879" y="703" type="curve"/>
      <point x="879" y="668" type="line"/>
      <point x="758" y="657"/>
      <point x="759" y="656"/>
    </contour>
  </outline>
</glyph>
<glyph name="Y" format="1">
  <advance width="765"/>
  <unicode hex="0059"/>
  <outline>
    <contour>
      <point x="61" y="703" type="curve"/>
      <point x="61" y="667" type="line"/>
      <point x="123" y="656"/>
      <point x="146" y="649"/>
      <point x="193" y="567" type="curve"/>
      <point x="361" y="274" type="line"/>
      <point x="362" y="86" type="line" smooth="yes"/>
      <point x="362" y="35"/>
      <point x="361" y="36"/>
      <point x="288" y="32" type="curve"/>
      <point x="288" y="-3" type="line"/>
      <point x="377" y="0"/>
      <point x="448" y="0"/>
      <point x="542" y="-3" type="curve"/>
      <point x="542" y="32" type="line"/>
      <point x="457" y="38"/>
      <point x="456" y="39"/>
      <point x="456" y="80" type="curve"/>
      <point x="456" y="270" type="line"/>
      <point x="626" y="569" type="line" smooth="yes"/>
      <point x="665" y="637"/>
      <point x="686" y="653"/>
      <point x="735" y="666" type="curve"/>
      <point x="735" y="702" type="line"/>
      <point x="667" y="698"/>
      <point x="609" y="698"/>
      <point x="511" y="702" type="curve"/>
      <point x="511" y="666" type="line"/>
      <point x="589" y="657"/>
      <point x="616" y="645"/>
      <point x="568" y="560" type="curve"/>
      <point x="406" y="276" type="line"/>
      <point x="455" y="302" type="line"/>
      <point x="291" y="580" type="line" smooth="yes"/>
      <point x="250" y="649"/>
      <point x="270" y="660"/>
      <point x="332" y="667" type="curve"/>
      <point x="332" y="703" type="line"/>
      <point x="242" y="697"/>
      <point x="161" y="697"/>
    </contour>
  </outline>
</glyph>
<glyph name="g" format="1">
  <advance width="418"/>
  <unicode hex="0067"/>
  <outline>
    <contour>
      <point x="26" y="250" type="curve"/>
      <point x="26" y="157"/>
      <point x="102" y="121"/>
      <point x="201" y="121" type="curve"/>
      <point x="274" y="121"/>
      <point x="348" y="156"/>
      <point x="348" y="240" type="curve"/>
      <point x="348" y="270"/>
      <point x="333" y="301"/>
      <point x="311" y="320" type="curve"/>
      <point x="344" y="326"/>
      <point x="374" y="328"/>
      <point x="406" y="326" type="curve"/>
      <point x="413" y="364" type="line"/>
      <point x="413" y="370" type="line"/>
      <point x="330" y="370"/>
      <point x="260" y="381"/>
      <point x="210" y="381" type="curve"/>
      <point x="86" y="381"/>
      <point x="26" y="322"/>
    </contour>
    <contour>
      <point x="100" y="240" type="curve"/>
      <point x="100" y="305"/>
      <point x="152" y="326"/>
      <point x="194" y="324" type="curve"/>
      <point x="245" y="322"/>
      <point x="283" y="291"/>
      <point x="283" y="231" type="curve"/>
      <point x="283" y="172"/>
      <point x="238" y="149"/>
      <point x="198" y="149" type="curve"/>
      <point x="141" y="149"/>
      <point x="100" y="199"/>
    </contour>
    <contour>
      <point x="182" y="-9" type="curve"/>
      <point x="158" y="7" type="line"/>
      <point x="83" y="-27"/>
      <point x="10" y="-66"/>
      <point x="10" y="-151" type="curve"/>
      <point x="10" y="-250"/>
      <point x="84" y="-290"/>
      <point x="207" y="-290" type="curve"/>
      <point x="330" y="-290"/>
      <point x="410" y="-202"/>
      <point x="410" y="-111" type="curve"/>
      <point x="410" y="-19"/>
      <point x="341" y="9"/>
      <point x="231" y="34" type="curve"/>
      <point x="148" y="53"/>
      <point x="110" y="61"/>
      <point x="110" y="75" type="curve"/>
      <point x="110" y="84"/>
      <point x="134" y="105"/>
      <point x="242" y="126" type="curve"/>
      <point x="153" y="135" type="line"/>
      <point x="118" y="111"/>
      <point x="33" y="95"/>
      <point x="34" y="86" type="curve"/>
      <point x="42" y="26" type="line" smooth="yes"/>
      <point x="43" y="18"/>
      <point x="122" y="0"/>
      <point x="191" y="-16" type="curve"/>
      <point x="314" y="-44"/>
      <point x="370" y="-68"/>
      <point x="370" y="-145" type="curve"/>
      <point x="370" y="-209"/>
      <point x="303" y="-261"/>
      <point x="217" y="-261" type="curve"/>
      <point x="142" y="-261"/>
      <point x="78" y="-211"/>
      <point x="78" y="-144" type="curve"/>
      <point x="78" y="-87"/>
      <point x="100" y="-43"/>
    </contour>
  </outline>
</glyph>
<glyph name="j" format="1">
  <advance width="209"/>
  <unicode hex="006A"/>
  <outline>
    <contour>
      <point x="173" y="367" type="curve"/>
      <point x="162" y="391" type="line"/>
      <point x="115" y="373"/>
      <point x="60" y="361"/>
      <point x="15" y="349" type="curve"/>
      <point x="17" y="324" type="line"/>
      <point x="58" y="323"/>
      <point x="59" y="323"/>
      <point x="58" y="272" type="curve"/>
      <point x="56" y="70" type="line" smooth="yes"/>
      <point x="54" y="-96"/>
      <point x="40" y="-183"/>
      <point x="-37" y="-256" type="curve"/>
      <point x="-18" y="-282" type="line"/>
      <point x="72" y="-210"/>
      <point x="134" y="-65"/>
      <point x="135" y="7" type="curve"/>
      <point x="139" y="283" type="line" smooth="yes"/>
      <point x="140" y="349"/>
      <point x="139" y="349"/>
    </contour>
  </outline>
</glyph>
<glyph name="m" format="1">
  <advance width="663"/>
  <unicode hex="006D"/>
  <outline>
    <contour>
      <point x="376" y="262" type="curve"/>
      <point x="376" y="343"/>
      <point x="358" y="381"/>
      <point x="271" y="381" type="curve"/>
      <point x="251" y="381"/>
      <point x="162" y="341"/>
      <point x="124" y="316" type="curve"/>
      <point x="124" y="293" type="line"/>
      <point x="157" y="313"/>
      <point x="191" y="325"/>
      <point x="229" y="325" type="curve"/>
      <point x="282" y="325"/>
      <point x="293" y="305"/>
      <point x="293" y="237" type="curve"/>
      <point x="293" y="171"/>
      <point x="292" y="64"/>
      <point x="288" y="0" type="curve"/>
      <point x="383" y="0" type="line"/>
      <point x="379" y="65"/>
      <point x="376" y="149"/>
    </contour>
    <contour>
      <point x="355" y="322" type="curve"/>
      <point x="369" y="302" type="line"/>
      <point x="402" y="318"/>
      <point x="425" y="325"/>
      <point x="463" y="324" type="curve"/>
      <point x="527" y="323"/>
      <point x="535" y="274"/>
      <point x="535" y="197" type="curve"/>
      <point x="535" y="140"/>
      <point x="525" y="49"/>
      <point x="510" y="13" type="curve"/>
      <point x="515" y="-2" type="line"/>
      <point x="565" y="0"/>
      <point x="608" y="0"/>
      <point x="653" y="-2" type="curve"/>
      <point x="653" y="23" type="line"/>
      <point x="604" y="23"/>
      <point x="601" y="42"/>
      <point x="601" y="88" type="curve"/>
      <point x="601" y="130"/>
      <point x="617" y="198"/>
      <point x="617" y="256" type="curve"/>
      <point x="617" y="325"/>
      <point x="573" y="380"/>
      <point x="492" y="380" type="curve"/>
      <point x="471" y="380"/>
      <point x="393" y="349"/>
    </contour>
    <contour>
      <point x="140" y="310" type="curve"/>
      <point x="118" y="381" type="line"/>
      <point x="100" y="384" type="line"/>
      <point x="64" y="362"/>
      <point x="43" y="348"/>
      <point x="15" y="334" type="curve"/>
      <point x="15" y="309" type="line"/>
      <point x="51" y="304"/>
      <point x="56" y="291"/>
      <point x="56" y="223" type="curve"/>
      <point x="56" y="160"/>
      <point x="55" y="62"/>
      <point x="50" y="0" type="curve"/>
      <point x="142" y="0" type="line"/>
      <point x="136" y="89"/>
      <point x="134" y="223"/>
    </contour>
  </outline>
</glyph>
<glyph name="o" format="1">
  <advance width="473"/>
  <unicode hex="006F"/>
  <outline>
    <contour>
      <point x="234" y="381" type="curve"/>
      <point x="127" y="381"/>
      <point x="20" y="302"/>
      <point x="20" y="180" type="curve"/>
      <point x="20" y="59"/>
      <point x="116" y="-10"/>
      <point x="237" y="-10" type="curve"/>
      <point x="344" y="-10"/>
      <point x="453" y="70"/>
      <point x="453" y="191" type="curve"/>
      <point x="453" y="308"/>
      <point x="356" y="381"/>
    </contour>
    <contour>
      <point x="242" y="22" type="curve"/>
      <point x="152" y="22"/>
      <point x="105" y="105"/>
      <point x="105" y="195" type="curve"/>
      <point x="105" y="275"/>
      <point x="139" y="349"/>
      <point x="229" y="349" type="curve"/>
      <point x="319" y="349"/>
      <point x="368" y="266"/>
      <point x="368" y="176" type="curve"/>
      <point x="368" y="96"/>
      <point x="332" y="22"/>
    </contour>
  </outline>
</glyph>
<glyph name="s" format="1">
  <advance width="356"/>
  <unicode hex="0073"/>
  <outline>
    <contour>
      <point x="310" y="362" type="curve"/>
      <point x="310" y="268" type="line"/>
      <point x="291" y="267" type="line"/>
      <point x="261" y="318"/>
      <point x="228" y="356"/>
      <point x="165" y="356" type="curve"/>
      <point x="119" y="356"/>
      <point x="89" y="329"/>
      <point x="89" y="292" type="curve"/>
      <point x="89" y="255"/>
      <point x="109" y="238"/>
      <point x="191" y="224" type="curve"/>
      <point x="267" y="211"/>
      <point x="336" y="178"/>
      <point x="336" y="98" type="curve"/>
      <point x="336" y="31"/>
      <point x="268" y="-10"/>
      <point x="181" y="-10" type="curve"/>
      <point x="145" y="-10"/>
      <point x="107" y="-5"/>
      <point x="64" y="3" type="curve"/>
      <point x="41" y="113" type="line"/>
      <point x="60" y="121" type="line"/>
      <point x="92" y="73"/>
      <point x="128" y="14"/>
      <point x="191" y="14" type="curve"/>
      <point x="227" y="14"/>
      <point x="270" y="35"/>
      <point x="270" y="77" type="curve"/>
      <point x="270" y="124"/>
      <point x="228" y="136"/>
      <point x="160" y="150" type="curve"/>
      <point x="72" y="168"/>
      <point x="30" y="194"/>
      <point x="30" y="269" type="curve"/>
      <point x="30" y="339"/>
      <point x="92" y="381"/>
      <point x="162" y="381" type="curve"/>
      <point x="243" y="381"/>
      <point x="268" y="367"/>
    </contour>
  </outline>
</glyph>
<glyph name="t" format="1">
  <advance width="350"/>
  <unicode hex="0074"/>
  <outline>
    <contour>
      <point x="328" y="370" type="line"/>
      <point x="134" y="370" type="line"/>
      <point x="134" y="322" type="line"/>
      <point x="318" y="322" type="line"/>
    </contour>
    <contour>
      <point x="138" y="172" type="curve"/>
      <point x="138" y="291"/>
      <point x="150" y="445"/>
      <point x="156" y="497" type="curve"/>
      <point x="129" y="497" type="line"/>
      <point x="105" y="407"/>
      <point x="67" y="364"/>
      <point x="15" y="347" type="curve"/>
      <point x="15" y="322" type="line"/>
      <point x="61" y="322" type="line"/>
      <point x="59" y="246"/>
      <point x="57" y="161"/>
      <point x="57" y="106" type="curve"/>
      <point x="57" y="16"/>
      <point x="105" y="-12"/>
      <point x="182" y="-10" type="curve"/>
      <point x="230" y="-9"/>
      <point x="288" y="40"/>
      <point x="335" y="76" type="curve"/>
      <point x="322" y="92" type="line"/>
      <point x="281" y="63"/>
      <point x="246" y="41"/>
      <point x="201" y="41" type="curve"/>
      <point x="141" y="41"/>
      <point x="138" y="85"/>
    </contour>
  </outline>
</glyph>
<glyph name="v" format="1">
  <advance width="399"/>
  <unicode hex="0076"/>
  <outline>
    <contour>
      <point x="218" y="371" type="curve"/>
      <point x="218" y="346" type="line"/>
      <point x="282" y="328"/>
      <point x="278" y="317"/>
      <point x="258" y="270" type="curve"/>
      <point x="229" y="201"/>
      <point x="183" y="130"/>
      <point x="154" y="76" type="curve"/>
      <point x="193" y="54" type="line"/>
      <point x="154" y="130"/>
      <point x="124" y="195"/>
      <point x="95" y="271" type="curve"/>
      <point x="76" y="321"/>
      <point x="80" y="329"/>
      <point x="139" y="346" type="curve"/>
      <point x="139" y="371" type="line"/>
      <point x="117" y="371"/>
      <point x="18" y="371"/>
      <point x="5" y="371" type="curve"/>
      <point x="5" y="346" type="line"/>
      <point x="39" y="298"/>
      <point x="155" y="44"/>
      <point x="178" y="-10" type="curve"/>
      <point x="197" y="-10" type="line"/>
      <point x="242" y="87"/>
      <point x="359" y="296"/>
      <point x="394" y="346" type="curve"/>
      <point x="394" y="371" type="line"/>
      <point x="365" y="370"/>
      <point x="227" y="370"/>
    </contour>
  </outline>
</glyph>
<glyph name="x" format="1">
  <advance width="423"/>
  <unicode hex="0078"/>
  <outline>
    <contour>
      <point x="10" y="371" type="curve"/>
      <point x="10" y="346" type="line"/>
      <point x="91" y="335"/>
      <point x="242" y="85"/>
      <point x="294" y="-2" type="curve"/>
      <point x="317" y="0"/>
      <point x="397" y="0"/>
      <point x="416" y="-2" type="curve"/>
      <point x="416" y="23" type="line"/>
      <point x="353" y="23"/>
      <point x="188" y="301"/>
      <point x="140" y="371" type="curve"/>
      <point x="106" y="369"/>
      <point x="49" y="369"/>
    </contour>
    <contour>
      <point x="5" y="-2" type="curve"/>
      <point x="22" y="-17" type="line"/>
      <point x="178" y="77"/>
      <point x="372" y="324"/>
      <point x="418" y="346" type="curve"/>
      <point x="418" y="371" type="line"/>
      <point x="394" y="369"/>
      <point x="281" y="369"/>
      <point x="254" y="371" type="curve"/>
      <point x="254" y="346" type="line"/>
      <point x="288" y="340"/>
      <point x="309" y="333"/>
      <point x="301" y="316" type="curve"/>
      <point x="274" y="258"/>
      <point x="132" y="87"/>
    </contour>
  </outline>
</glyph>
<glyph name="y" format="1">
  <advance width="428"/>
  <unicode hex="0079"/>
  <outline>
    <contour>
      <point x="11" y="297" type="curve"/>
      <point x="187" y="-44" type="line"/>
      <point x="208" y="-3" type="line"/>
      <point x="168" y="86"/>
      <point x="120" y="175"/>
      <point x="89" y="264" type="curve"/>
      <point x="71" y="316"/>
      <point x="67" y="337"/>
      <point x="134" y="345" type="curve"/>
      <point x="134" y="370" type="line"/>
      <point x="65" y="368"/>
      <point x="-9" y="369"/>
      <point x="-25" y="370" type="curve"/>
      <point x="-25" y="345" type="line"/>
      <point x="-12" y="344"/>
      <point x="0" y="318"/>
    </contour>
    <contour>
      <point x="304" y="293" type="curve"/>
      <point x="242" y="109"/>
      <point x="91" y="-177"/>
      <point x="48" y="-252" type="curve"/>
      <point x="47" y="-279" type="line"/>
      <point x="102" y="-279" type="line"/>
      <point x="147" y="-177"/>
      <point x="297" y="149"/>
      <point x="366" y="281" type="curve"/>
      <point x="378" y="304"/>
      <point x="408" y="337"/>
      <point x="423" y="343" type="curve"/>
      <point x="423" y="371" type="line"/>
      <point x="396" y="370"/>
      <point x="300" y="369"/>
      <point x="238" y="371" type="curve"/>
      <point x="238" y="346" type="line"/>
      <point x="301" y="340"/>
      <point x="314" y="322"/>
    </contour>
  </outline>
</glyph>
<glyph name="section" format="1">
  <advance width="515"/>
  <unicode hex="00A7"/>
  <outline>
    <contour>
      <point x="226" y="-241" type="curve"/>
      <point x="333" y="-241"/>
      <point x="411" y="-155"/>
      <point x="411" y="-55" type="curve"/>
      <point x="411" y="42"/>
      <point x="326" y="85"/>
      <point x="251" y="110" type="curve"/>
      <point x="178" y="134"/>
      <point x="139" y="166"/>
      <point x="139" y="227" type="curve"/>
      <point x="139" y="274"/>
      <point x="165" y="298"/>
      <point x="197" y="324" type="curve"/>
      <point x="175" y="344" type="line"/>
      <point x="122" y="311"/>
      <point x="77" y="250"/>
      <point x="77" y="193" type="curve"/>
      <point x="77" y="102"/>
      <point x="147" y="59"/>
      <point x="212" y="38" type="curve"/>
      <point x="280" y="16"/>
      <point x="352" y="-21"/>
      <point x="350" y="-91" type="curve"/>
      <point x="348" y="-159"/>
      <point x="288" y="-201"/>
      <point x="226" y="-201" type="curve"/>
      <point x="151" y="-201"/>
      <point x="104" y="-172"/>
      <point x="100" y="-113" type="curve"/>
      <point x="80" y="-112" type="line"/>
      <point x="67" y="-202" type="line"/>
      <point x="103" y="-224"/>
      <point x="146" y="-241"/>
    </contour>
    <contour>
      <point x="330" y="54" type="curve"/>
      <point x="341" y="23" type="line"/>
      <point x="397" y="69"/>
      <point x="441" y="124"/>
      <point x="441" y="195" type="curve"/>
      <point x="441" y="297"/>
      <point x="347" y="335"/>
      <point x="271" y="360" type="curve"/>
      <point x="198" y="384"/>
      <point x="163" y="417"/>
      <point x="163" y="457" type="curve"/>
      <point x="163" y="501"/>
      <point x="202" y="536"/>
      <point x="252" y="536" type="curve"/>
      <point x="309" y="536"/>
      <point x="372" y="504"/>
      <point x="368" y="412" type="curve"/>
      <point x="387" y="405" type="line"/>
      <point x="429" y="500" type="line"/>
      <point x="385" y="548"/>
      <point x="338" y="576"/>
      <point x="261" y="576" type="curve"/>
      <point x="180" y="576"/>
      <point x="103" y="512"/>
      <point x="103" y="430" type="curve"/>
      <point x="103" y="350"/>
      <point x="167" y="309"/>
      <point x="232" y="288" type="curve"/>
      <point x="300" y="266"/>
      <point x="382" y="226"/>
      <point x="380" y="156" type="curve"/>
      <point x="379" y="114"/>
      <point x="365" y="86"/>
    </contour>
  </outline>
</glyph>
<glyph name="a_macr" format="1">
  <advance width="357"/>
  <unicode hex="0101"/>
  <outline>
    <contour>
      <point x="238" y="162" type="curve"/>
      <point x="238" y="195" type="line"/>
      <point x="151" y="203"/>
      <point x="62" y="183"/>
      <point x="22" y="132" type="curve"/>
      <point x="7" y="63"/>
      <point x="47" y="-10"/>
      <point x="117" y="-10" type="curve"/>
      <point x="183" y="-10"/>
      <point x="219" y="54"/>
      <point x="241" y="75" type="curve"/>
      <point x="232" y="106" type="line"/>
      <point x="213" y="83"/>
      <point x="194" y="49"/>
      <point x="144" y="49" type="curve"/>
      <point x="101" y="49"/>
      <point x="82" y="85"/>
      <point x="92" y="125" type="curve"/>
      <point x="112" y="161"/>
      <point x="183" y="188"/>
    </contour>
    <contour>
      <point x="227" y="240" type="curve"/>
      <point x="222" y="99" type="line"/>
      <point x="234" y="-10" type="line"/>
      <point x="277" y="-6"/>
      <point x="305" y="-3"/>
      <point x="352" y="1" type="curve"/>
      <point x="352" y="26" type="line"/>
      <point x="306" y="34"/>
      <point x="300" y="48"/>
      <point x="300" y="98" type="curve"/>
      <point x="300" y="137"/>
      <point x="303" y="180"/>
      <point x="305" y="257" type="curve"/>
      <point x="307" y="335"/>
      <point x="254" y="381"/>
      <point x="170" y="381" type="curve"/>
      <point x="87" y="381"/>
      <point x="9" y="313"/>
      <point x="15" y="238" type="curve"/>
      <point x="18" y="225" type="line"/>
      <point x="127" y="249" type="line"/>
      <point x="126" y="261" type="line"/>
      <point x="105" y="266"/>
      <point x="79" y="283"/>
      <point x="79" y="304" type="curve"/>
      <point x="79" y="332"/>
      <point x="117" y="351"/>
      <point x="154" y="351" type="curve"/>
      <point x="199" y="351"/>
      <point x="230" y="320"/>
    </contour>
    <contour>
      <point x="62" y="563" type="curve"/>
      <point x="42" y="587" type="line"/>
      <point x="131" y="660" type="line"/>
      <point x="166" y="647"/>
      <point x="220" y="635"/>
      <point x="236" y="635" type="curve"/>
      <point x="264" y="635"/>
      <point x="288" y="654"/>
      <point x="299" y="661" type="curve"/>
      <point x="323" y="642" type="line"/>
      <point x="205" y="552" type="line"/>
      <point x="170" y="564"/>
      <point x="128" y="577"/>
      <point x="109" y="577" type="curve"/>
      <point x="95" y="577"/>
      <point x="81" y="579"/>
    </contour>
  </outline>
</glyph>
<glyph name="e_macr" format="1">
  <advance width="407"/>
  <unicode hex="0113"/>
  <outline>
    <contour>
      <point x="118" y="537" type="curve"/>
      <point x="98" y="561" type="line"/>
      <point x="192" y="622" type="line"/>
      <point x="227" y="609"/>
      <point x="281" y="599"/>
      <point x="297" y="599" type="curve"/>
      <point x="305" y="599"/>
      <point x="319" y="607"/>
      <point x="330" y="614" type="curve"/>
      <point x="354" y="595" type="line"/>
      <point x="266" y="524" type="line"/>
      <point x="231" y="536"/>
      <point x="179" y="544"/>
      <point x="160" y="544" type="curve"/>
      <point x="146" y="544"/>
      <point x="132" y="546"/>
    </contour>
    <contour>
      <point x="243" y="45" type="curve"/>
      <point x="162" y="45"/>
      <point x="103" y="110"/>
      <point x="103" y="214" type="curve"/>
      <point x="103" y="257"/>
      <point x="107" y="299"/>
      <point x="133" y="324" type="curve"/>
      <point x="184" y="329"/>
      <point x="253" y="286"/>
      <point x="267" y="244" type="curve"/>
      <point x="299" y="283" type="line"/>
      <point x="84" y="190" type="line"/>
      <point x="93" y="162" type="line"/>
      <point x="365" y="280" type="line"/>
      <point x="365" y="294" type="line"/>
      <point x="322" y="309"/>
      <point x="222" y="381"/>
      <point x="209" y="381" type="curve"/>
      <point x="122" y="361"/>
      <point x="50" y="305"/>
      <point x="35" y="272" type="curve"/>
      <point x="27" y="246"/>
      <point x="20" y="217"/>
      <point x="20" y="179" type="curve"/>
      <point x="20" y="62"/>
      <point x="103" y="-10"/>
      <point x="218" y="-10" type="curve"/>
      <point x="256" y="-10"/>
      <point x="352" y="40"/>
      <point x="397" y="108" type="curve"/>
      <point x="376" y="120" type="line"/>
      <point x="345" y="76"/>
      <point x="302" y="45"/>
    </contour>
  </outline>
</glyph>
<glyph name="u_macr" format="1">
  <advance width="421"/>
  <unicode hex="016B"/>
  <outline>
    <contour>
      <point x="109" y="525" type="curve"/>
      <point x="89" y="549" type="line"/>
      <point x="183" y="622" type="line"/>
      <point x="218" y="609"/>
      <point x="272" y="589"/>
      <point x="288" y="589" type="curve"/>
      <point x="296" y="589"/>
      <point x="310" y="597"/>
      <point x="321" y="604" type="curve"/>
      <point x="345" y="585" type="line"/>
      <point x="257" y="514" type="line"/>
      <point x="222" y="526"/>
      <point x="170" y="544"/>
      <point x="151" y="544" type="curve"/>
      <point x="137" y="544"/>
      <point x="123" y="534"/>
    </contour>
    <component base="u"/>
  </outline>
</glyph>
<glyph name="longs" format="1">
  <advance width="240"/>
  <unicode hex="017F"/>
  <outline>
    <contour>
      <point x="141" y="92" type="curve"/>
      <point x="139" y="435" type="line"/>
      <point x="138" y="572"/>
      <point x="143" y="583"/>
      <point x="162" y="616" type="curve"/>
      <point x="207" y="616"/>
      <point x="236" y="604"/>
      <point x="270" y="554" type="curve"/>
      <point x="284" y="554" type="line"/>
      <point x="291" y="662" type="line"/>
      <point x="269" y="673"/>
      <point x="237" y="679"/>
      <point x="205" y="679" type="curve"/>
      <point x="189" y="679"/>
      <point x="64" y="605"/>
      <point x="64" y="465" type="curve"/>
      <point x="64" y="411"/>
      <point x="67" y="376"/>
      <point x="16" y="337" type="curve"/>
      <point x="16" y="316" type="line"/>
      <point x="60" y="316" type="line"/>
      <point x="60" y="95" type="line" smooth="yes"/>
      <point x="60" y="29"/>
      <point x="60" y="29"/>
      <point x="15" y="18" type="curve"/>
      <point x="15" y="-2" type="line"/>
      <point x="78" y="0"/>
      <point x="138" y="0"/>
      <point x="205" y="-2" type="curve"/>
      <point x="205" y="23" type="line"/>
      <point x="142" y="32"/>
      <point x="141" y="37"/>
    </contour>
  </outline>
</glyph>
<glyph name="p_bardes" format="1">
  <advance width="493"/>
  <unicode hex="A751"/>
  <outline>
    <contour>
      <point x="137" y="313" type="curve"/>
      <point x="134" y="280" type="line"/>
      <point x="168" y="298"/>
      <point x="208" y="320"/>
      <point x="247" y="320" type="curve"/>
      <point x="340" y="320"/>
      <point x="399" y="250"/>
      <point x="399" y="170" type="curve"/>
      <point x="399" y="79"/>
      <point x="339" y="27"/>
      <point x="246" y="27" type="curve"/>
      <point x="209" y="27"/>
      <point x="143" y="64"/>
      <point x="131" y="110" type="curve"/>
      <point x="132" y="0" type="line"/>
      <point x="152" y="-5"/>
      <point x="199" y="-10"/>
      <point x="238" y="-10" type="curve"/>
      <point x="367" y="-10"/>
      <point x="473" y="97"/>
      <point x="473" y="211" type="curve"/>
      <point x="473" y="322"/>
      <point x="400" y="381"/>
      <point x="276" y="381" type="curve"/>
      <point x="252" y="381"/>
      <point x="179" y="336"/>
    </contour>
    <contour>
      <point x="148" y="371" type="curve"/>
      <point x="130" y="381" type="line"/>
      <point x="104" y="359"/>
      <point x="59" y="341"/>
      <point x="21" y="331" type="curve"/>
      <point x="23" y="294" type="line"/>
      <point x="48" y="294"/>
      <point x="57" y="285"/>
      <point x="58" y="261" type="curve"/>
      <point x="59" y="244"/>
      <point x="59" y="224"/>
      <point x="59" y="204" type="curve"/>
      <point x="59" y="141"/>
      <point x="50" y="-217"/>
      <point x="45" y="-280" type="curve"/>
      <point x="56" y="-279"/>
      <point x="153" y="-272"/>
      <point x="173" y="-272" type="curve"/>
      <point x="173" y="-249" type="line"/>
      <point x="151" y="-239"/>
      <point x="141" y="-234"/>
      <point x="140" y="-208" type="curve"/>
      <point x="138" y="-151"/>
      <point x="139" y="141"/>
      <point x="139" y="204" type="curve"/>
      <point x="139" y="267"/>
      <point x="141" y="309"/>
    </contour>
    <component base="bardes" xScale="0.8615" xyScale="-0.3475" yScale="0.9373" yxScale="0.3072" xOffset="22" yOffset="28"/>
  </outline>
</glyph>
<glyph name="p_flour" format="1">
  <advance width="584"/>
  <unicode hex="A752"/>
  <outline>
    <contour>
      <point x="165" y="9" type="curve"/>
      <point x="174" y="45" type="line"/>
      <point x="76" y="54"/>
      <point x="0" y="9"/>
      <point x="0" y="-55" type="curve"/>
      <point x="0" y="-99"/>
      <point x="13" y="-121"/>
      <point x="33" y="-155" type="curve"/>
      <point x="98" y="-121" type="line"/>
      <point x="98" y="-108" type="line"/>
      <point x="61" y="-97"/>
      <point x="50" y="-77"/>
      <point x="50" y="-45" type="curve"/>
      <point x="50" y="-4"/>
      <point x="100" y="19"/>
    </contour>
    <contour>
      <point x="240" y="-169" type="curve"/>
      <point x="235" y="-67"/>
      <point x="240" y="190"/>
      <point x="243" y="307" type="curve"/>
      <point x="240" y="376" type="line"/>
      <point x="188" y="374"/>
      <point x="148" y="372"/>
      <point x="111" y="369" type="curve"/>
      <point x="111" y="344" type="line"/>
      <point x="158" y="347"/>
      <point x="156" y="317"/>
      <point x="158" y="273" type="curve"/>
      <point x="161" y="210"/>
      <point x="160" y="-14"/>
      <point x="156" y="-144" type="curve"/>
      <point x="153" y="-240"/>
      <point x="156" y="-238"/>
      <point x="128" y="-258" type="curve"/>
      <point x="128" y="-282" type="line"/>
      <point x="171" y="-279"/>
      <point x="227" y="-280"/>
      <point x="273" y="-282" type="curve"/>
      <point x="273" y="-257" type="line"/>
      <point x="240" y="-234"/>
      <point x="243" y="-234"/>
    </contour>
    <contour>
      <point x="231" y="38" type="curve"/>
      <point x="229" y="0" type="line"/>
      <point x="270" y="0"/>
      <point x="313" y="-4"/>
      <point x="389" y="-14" type="curve"/>
      <point x="427" y="0"/>
      <point x="564" y="49"/>
      <point x="564" y="191" type="curve"/>
      <point x="564" y="307"/>
      <point x="475" y="372"/>
      <point x="367" y="381" type="curve"/>
      <point x="336" y="366"/>
      <point x="278" y="336"/>
      <point x="237" y="312" type="curve"/>
      <point x="232" y="277" type="line"/>
      <point x="263" y="302"/>
      <point x="314" y="320"/>
      <point x="349" y="320" type="curve"/>
      <point x="426" y="320"/>
      <point x="488" y="266"/>
      <point x="488" y="171" type="curve"/>
      <point x="488" y="91"/>
      <point x="432" y="22"/>
      <point x="362" y="22" type="curve"/>
      <point x="330" y="22"/>
      <point x="270" y="30"/>
    </contour>
  </outline>
</glyph>
<glyph name="q_bardes" format="1">
  <advance width="522"/>
  <unicode hex="A757"/>
  <outline>
    <contour>
      <point x="491.584" y="-41" type="line"/>
      <point x="486.764" y="-37" type="line"/>
      <point x="357.588" y="-97"/>
      <point x="221.664" y="-142"/>
      <point x="73.208" y="-194" type="curve"/>
      <point x="73.208" y="-200" type="line"/>
      <point x="100.2" y="-212" type="line"/>
      <point x="228.412" y="-168"/>
      <point x="350.84" y="-136"/>
      <point x="479.052" y="-96" type="curve"/>
    </contour>
    <component base="q"/>
  </outline>
</glyph>
<glyph name="q_strok" format="1">
  <advance width="699"/>
  <unicode hex="A759"/>
  <outline>
    <contour>
      <point x="414" y="243" type="curve"/>
      <point x="423" y="220" type="line"/>
      <point x="450" y="256"/>
      <point x="485" y="296"/>
      <point x="515" y="296" type="curve"/>
      <point x="548" y="296"/>
      <point x="590" y="263"/>
      <point x="590" y="226" type="curve"/>
      <point x="590" y="135"/>
      <point x="498" y="43"/>
      <point x="423" y="-25" type="curve"/>
      <point x="423" y="-82" type="line"/>
      <point x="515" y="33"/>
      <point x="660" y="170"/>
      <point x="679" y="274" type="curve"/>
      <point x="669" y="318"/>
      <point x="618" y="358"/>
      <point x="577" y="368" type="curve"/>
      <point x="531" y="368"/>
      <point x="473" y="306"/>
    </contour>
    <component base="q"/>
  </outline>
</glyph>
<glyph name="l_strok" format="1">
  <advance width="315"/>
  <unicode hex="A769"/>
  <outline>
    <contour>
      <point x="196" y="599" type="line"/>
      <point x="196" y="574" type="line"/>
      <point x="226" y="564"/>
      <point x="252" y="554"/>
      <point x="252" y="508" type="curve"/>
      <point x="252" y="430"/>
      <point x="179" y="355"/>
      <point x="99" y="314" type="curve"/>
      <point x="109" y="286" type="line"/>
      <point x="222" y="349"/>
      <point x="325" y="471"/>
      <point x="308" y="599" type="curve"/>
    </contour>
    <contour>
      <point x="15" y="582" type="curve"/>
      <point x="15" y="564" type="line"/>
      <point x="63" y="534"/>
      <point x="62" y="531"/>
      <point x="62" y="363" type="curve"/>
      <point x="62" y="171" type="line" smooth="yes"/>
      <point x="62" y="36"/>
      <point x="62" y="36"/>
      <point x="26" y="19" type="curve"/>
      <point x="26" y="-1" type="line"/>
      <point x="184" y="-2" type="line"/>
      <point x="185" y="23" type="line"/>
      <point x="141" y="26"/>
      <point x="139" y="26"/>
      <point x="139" y="169" type="curve"/>
      <point x="139" y="323" type="line" smooth="yes"/>
      <point x="139" y="479"/>
      <point x="145" y="535"/>
      <point x="151" y="596" type="curve"/>
      <point x="136" y="603" type="line"/>
      <point x="112" y="596"/>
      <point x="57" y="591"/>
    </contour>
  </outline>
</glyph>
<glyph name="con" format="1">
  <advance width="408"/>
  <unicode hex="A76F"/>
  <outline>
    <contour>
      <point x="25" y="285" type="curve"/>
      <point x="83" y="245" type="line"/>
      <point x="115" y="299"/>
      <point x="146" y="333"/>
      <point x="178" y="347" type="curve"/>
      <point x="250" y="334"/>
      <point x="300" y="297"/>
      <point x="300" y="197" type="curve"/>
      <point x="300" y="82"/>
      <point x="235" y="39"/>
      <point x="204" y="19" type="curve"/>
      <point x="150" y="42"/>
      <point x="106" y="76"/>
      <point x="72" y="119" type="curve"/>
      <point x="25" y="77" type="line"/>
      <point x="57" y="31"/>
      <point x="124" y="-11"/>
      <point x="194" y="-11" type="curve"/>
      <point x="279" y="-11"/>
      <point x="388" y="73"/>
      <point x="388" y="208" type="curve"/>
      <point x="388" y="328"/>
      <point x="289" y="380"/>
      <point x="200" y="380" type="curve"/>
      <point x="117" y="380"/>
      <point x="55" y="327"/>
    </contour>
  </outline>
</glyph>
<glyph name="rum" format="1">
  <advance width="652"/>
  <unicode hex="A775"/>
  <outline>
    <contour>
      <point x="192" y="24" type="curve"/>
      <point x="300" y="24"/>
      <point x="434" y="0"/>
      <point x="538" y="-10" type="curve"/>
      <point x="568" y="11"/>
      <point x="629" y="83"/>
      <point x="602" y="212" type="curve"/>
      <point x="579" y="212" type="line"/>
      <point x="592" y="118"/>
      <point x="549" y="72"/>
      <point x="501" y="72" type="curve"/>
      <point x="401" y="72"/>
      <point x="324" y="85"/>
      <point x="238" y="85" type="curve"/>
      <point x="175" y="85"/>
      <point x="124" y="79"/>
      <point x="76" y="71" type="curve"/>
      <point x="70" y="32" type="line"/>
      <point x="132" y="90"/>
      <point x="218" y="172"/>
      <point x="218" y="251" type="curve"/>
      <point x="218" y="340"/>
      <point x="109" y="389"/>
      <point x="30" y="378" type="curve"/>
      <point x="24" y="360" type="line"/>
      <point x="91" y="352"/>
      <point x="146" y="303"/>
      <point x="146" y="228" type="curve"/>
      <point x="146" y="148"/>
      <point x="84" y="76"/>
      <point x="25" y="21" type="curve"/>
      <point x="28" y="0" type="line"/>
      <point x="74" y="19"/>
      <point x="118" y="24"/>
    </contour>
    <contour>
      <point x="231" y="-198" type="curve"/>
      <point x="227" y="-214" type="line"/>
      <point x="306" y="-240" type="line"/>
      <point x="359" y="-151"/>
      <point x="381" y="-35"/>
      <point x="420" y="162" type="curve"/>
      <point x="453" y="327"/>
      <point x="461" y="333"/>
      <point x="600" y="347" type="curve"/>
      <point x="600" y="372" type="line"/>
      <point x="538" y="370"/>
      <point x="439" y="370"/>
      <point x="386" y="372" type="curve"/>
      <point x="376" y="212"/>
      <point x="378" y="149"/>
      <point x="368" y="83" type="curve"/>
      <point x="355" y="-3"/>
      <point x="296" y="-166"/>
    </contour>
  </outline>
</glyph>
<glyph name="n_macr" format="1">
  <advance width="438"/>
  <unicode hex="E5DC"/>
  <outline>
    <contour>
      <point x="109" y="530" type="curve"/>
      <point x="89" y="554" type="line"/>
      <point x="183" y="627" type="line"/>
      <point x="218" y="614"/>
      <point x="272" y="594"/>
      <point x="288" y="594" type="curve"/>
      <point x="296" y="594"/>
      <point x="310" y="602"/>
      <point x="321" y="609" type="curve"/>
      <point x="345" y="590" type="line"/>
      <point x="257" y="519" type="line"/>
      <point x="222" y="531"/>
      <point x="170" y="549"/>
      <point x="151" y="549" type="curve"/>
      <point x="137" y="549"/>
      <point x="123" y="539"/>
    </contour>
    <component base="n"/>
  </outline>
</glyph>
<glyph name="p_macr" format="1">
  <advance width="500"/>
  <unicode hex="E665"/>
  <outline>
    <contour>
      <point x="140" y="-197" type="curve"/>
      <point x="140" y="50" type="line"/>
      <point x="142" y="122"/>
      <point x="142" y="181"/>
      <point x="142" y="204" type="curve"/>
      <point x="142" y="258"/>
      <point x="144" y="303"/>
      <point x="141" y="371" type="curve"/>
      <point x="113" y="370"/>
      <point x="61" y="364"/>
      <point x="15" y="361" type="curve"/>
      <point x="17" y="334" type="line"/>
      <point x="52" y="334"/>
      <point x="60" y="325"/>
      <point x="61" y="301" type="curve"/>
      <point x="62" y="283"/>
      <point x="62" y="-59"/>
      <point x="59" y="-195" type="curve"/>
      <point x="58" y="-235"/>
      <point x="50" y="-254"/>
      <point x="20" y="-254" type="curve"/>
      <point x="18" y="-284" type="line"/>
      <point x="49" y="-282"/>
      <point x="72" y="-280"/>
      <point x="113" y="-280" type="curve"/>
      <point x="144" y="-280"/>
      <point x="167" y="-281"/>
      <point x="193" y="-283" type="curve"/>
      <point x="194" y="-248" type="line"/>
      <point x="153" y="-250"/>
      <point x="143" y="-238"/>
    </contour>
    <contour>
      <point x="135" y="107" type="curve"/>
      <point x="131" y="1" type="line"/>
      <point x="150" y="-5"/>
      <point x="199" y="-10"/>
      <point x="241" y="-10" type="curve"/>
      <point x="370" y="-10"/>
      <point x="480" y="97"/>
      <point x="480" y="211" type="curve"/>
      <point x="480" y="312"/>
      <point x="403" y="381"/>
      <point x="279" y="381" type="curve"/>
      <point x="255" y="381"/>
      <point x="181" y="335"/>
      <point x="139" y="312" type="curve"/>
      <point x="137" y="280" type="line"/>
      <point x="171" y="298"/>
      <point x="211" y="320"/>
      <point x="250" y="320" type="curve"/>
      <point x="343" y="320"/>
      <point x="402" y="250"/>
      <point x="402" y="170" type="curve"/>
      <point x="402" y="79"/>
      <point x="342" y="27"/>
      <point x="249" y="27" type="curve"/>
      <point x="213" y="27"/>
      <point x="148" y="62"/>
    </contour>
    <contour>
      <point x="184" y="540" type="curve"/>
      <point x="164" y="564" type="line"/>
      <point x="238" y="636" type="line"/>
      <point x="273" y="623"/>
      <point x="314" y="610"/>
      <point x="330" y="610" type="curve"/>
      <point x="338" y="610"/>
      <point x="365" y="611"/>
      <point x="406" y="650" type="curve"/>
      <point x="430" y="631" type="line"/>
      <point x="322" y="528" type="line"/>
      <point x="287" y="540"/>
      <point x="245" y="559"/>
      <point x="226" y="559" type="curve"/>
      <point x="212" y="559"/>
      <point x="198" y="549"/>
    </contour>
  </outline>
</glyph>
<glyph name="longs_i" format="1">
  <advance width="484"/>
  <unicode hex="EBA2"/>
  <outline>
    <contour>
      <point x="137" y="465" type="curve"/>
      <point x="137" y="572"/>
      <point x="178" y="636"/>
      <point x="247" y="636" type="curve"/>
      <point x="312" y="636"/>
      <point x="341" y="597"/>
      <point x="355" y="557" type="curve"/>
      <point x="425" y="557" type="line"/>
      <point x="429" y="578" type="line"/>
      <point x="398" y="649"/>
      <point x="345" y="679"/>
      <point x="262" y="679" type="curve"/>
      <point x="176" y="679"/>
      <point x="63" y="605"/>
      <point x="63" y="465" type="curve"/>
      <point x="63" y="411"/>
      <point x="66" y="376"/>
      <point x="15" y="337" type="curve"/>
      <point x="15" y="316" type="line"/>
      <point x="59" y="316" type="line"/>
      <point x="59" y="155" type="line" smooth="yes"/>
      <point x="59" y="89"/>
      <point x="59" y="48"/>
      <point x="34" y="9" type="curve"/>
      <point x="34" y="-11" type="line"/>
      <point x="77" y="-7"/>
      <point x="112" y="-2"/>
      <point x="145" y="-1" type="curve"/>
      <point x="145" y="24" type="line"/>
      <point x="125" y="51"/>
      <point x="137" y="251"/>
    </contour>
    <contour>
      <point x="268" y="370" type="curve"/>
      <point x="270" y="342" type="line"/>
      <point x="351" y="341"/>
      <point x="351" y="335"/>
      <point x="351" y="274" type="curve"/>
      <point x="351" y="160"/>
      <point x="348" y="77"/>
      <point x="338" y="20" type="curve"/>
      <point x="340" y="0" type="line"/>
      <point x="371" y="2"/>
      <point x="436" y="0"/>
      <point x="469" y="0" type="curve"/>
      <point x="469" y="25" type="line"/>
      <point x="428" y="36"/>
      <point x="428" y="36"/>
      <point x="429" y="97" type="curve"/>
      <point x="432" y="283" type="line" smooth="yes"/>
      <point x="433" y="349"/>
      <point x="432" y="349"/>
      <point x="446" y="367" type="curve"/>
      <point x="435" y="391" type="line"/>
      <point x="398" y="381"/>
      <point x="353" y="374"/>
    </contour>
  </outline>
</glyph>
<glyph name="longs_t" format="1">
  <advance width="622"/>
  <unicode hex="FB05"/>
  <outline>
    <contour>
      <point x="600" y="370" type="line"/>
      <point x="414" y="370" type="line"/>
      <point x="411" y="322" type="line"/>
      <point x="590" y="322" type="line"/>
    </contour>
    <contour>
      <point x="430" y="162" type="curve"/>
      <point x="430" y="293"/>
      <point x="435" y="397"/>
      <point x="435" y="519" type="curve"/>
      <point x="435" y="616"/>
      <point x="370" y="679"/>
      <point x="251" y="679" type="curve"/>
      <point x="165" y="679"/>
      <point x="63" y="605"/>
      <point x="63" y="465" type="curve"/>
      <point x="63" y="411"/>
      <point x="66" y="376"/>
      <point x="15" y="337" type="curve"/>
      <point x="15" y="316" type="line"/>
      <point x="59" y="316" type="line"/>
      <point x="59" y="95" type="line" smooth="yes"/>
      <point x="59" y="39"/>
      <point x="59" y="39"/>
      <point x="34" y="18" type="curve"/>
      <point x="34" y="-2" type="line"/>
      <point x="77" y="0"/>
      <point x="135" y="0"/>
      <point x="202" y="-2" type="curve"/>
      <point x="202" y="23" type="line"/>
      <point x="139" y="41"/>
      <point x="138" y="46"/>
      <point x="138" y="92" type="curve"/>
      <point x="136" y="465" type="line" smooth="yes"/>
      <point x="135" y="572"/>
      <point x="169" y="636"/>
      <point x="248" y="636" type="curve"/>
      <point x="343" y="636"/>
      <point x="370" y="577"/>
      <point x="370" y="477" type="curve"/>
      <point x="370" y="403"/>
      <point x="370" y="362"/>
      <point x="285" y="347" type="curve"/>
      <point x="285" y="322" type="line"/>
      <point x="351" y="322" type="line"/>
      <point x="349" y="246"/>
      <point x="351" y="161"/>
      <point x="351" y="106" type="curve"/>
      <point x="351" y="26"/>
      <point x="397" y="-12"/>
      <point x="474" y="-10" type="curve"/>
      <point x="522" y="-9"/>
      <point x="560" y="30"/>
      <point x="607" y="76" type="curve"/>
      <point x="594" y="92" type="line"/>
      <point x="553" y="53"/>
      <point x="528" y="41"/>
      <point x="488" y="41" type="curve"/>
      <point x="435" y="41"/>
      <point x="430" y="75"/>
    </contour>
  </outline>
</glyph>
<glyph name="bardes" format="1">
  <advance width="500"/>
  <outline>
    <contour>
      <point x="456" y="15" type="line"/>
      <point x="451" y="19" type="line"/>
      <point x="317" y="-41"/>
      <point x="176" y="-86"/>
      <point x="22" y="-138" type="curve"/>
      <point x="22" y="-144" type="line"/>
      <point x="50" y="-156" type="line"/>
      <point x="183" y="-112"/>
      <point x="310" y="-80"/>
      <point x="443" y="-40" type="curve"/>
    </contour>
  </outline>
</glyph>
<glyph name="i_dieresis" format="1">
  <advance width="176"/>
  <outline>
    <contour>
      <point x="15" y="369" type="curve"/>
      <point x="17" y="340" type="line"/>
      <point x="58" y="339"/>
      <point x="59" y="339"/>
      <point x="58" y="288" type="curve"/>
      <point x="56" y="96" type="line" smooth="yes"/>
      <point x="55" y="36"/>
      <point x="55" y="35"/>
      <point x="34" y="20" type="curve"/>
      <point x="34" y="0" type="line"/>
      <point x="58" y="2"/>
      <point x="143" y="0"/>
      <point x="177" y="0" type="curve"/>
      <point x="177" y="25" type="line"/>
      <point x="135" y="36"/>
      <point x="136" y="36"/>
      <point x="136" y="97" type="curve"/>
      <point x="136" y="187"/>
      <point x="135" y="269"/>
      <point x="151" y="366" type="curve"/>
      <point x="139" y="379" type="line"/>
      <point x="102" y="373"/>
      <point x="61" y="371"/>
    </contour>
    <component base="period" xOffset="-39" yOffset="328"/>
    <component base="period" xOffset="80" yOffset="328"/>
  </outline>
</glyph>
<glyph name="r_rot_c_dieresis" format="1">
  <advance width="773"/>
  <outline>
    <contour>
      <point x="68" y="0" type="curve"/>
      <point x="65" y="24" type="line"/>
      <point x="124" y="70"/>
      <point x="221" y="144"/>
      <point x="221" y="234" type="curve"/>
      <point x="221" y="310"/>
      <point x="138" y="368"/>
      <point x="30" y="291" type="curve"/>
      <point x="25" y="318" type="line"/>
      <point x="92" y="361"/>
      <point x="132" y="377"/>
      <point x="167" y="377" type="curve"/>
      <point x="239" y="376"/>
      <point x="299" y="323"/>
      <point x="299" y="251" type="curve"/>
      <point x="299" y="183"/>
      <point x="206" y="113"/>
      <point x="149" y="57" type="curve"/>
      <point x="223" y="56"/>
      <point x="279" y="57"/>
      <point x="363" y="63" type="curve"/>
      <point x="386" y="-12" type="line"/>
      <point x="287" y="-3"/>
      <point x="167" y="1"/>
    </contour>
    <contour>
      <point x="767" y="78" type="line"/>
      <point x="700" y="101" type="line"/>
      <point x="681" y="68"/>
      <point x="633" y="26"/>
      <point x="587" y="26" type="curve"/>
      <point x="513" y="26"/>
      <point x="457" y="84"/>
      <point x="457" y="179" type="curve"/>
      <point x="457" y="244"/>
      <point x="491" y="295"/>
      <point x="522" y="315" type="curve"/>
      <point x="577" y="319"/>
      <point x="664" y="297"/>
      <point x="693" y="287" type="curve"/>
      <point x="767" y="323" type="line"/>
      <point x="765" y="334" type="line"/>
      <point x="726" y="352"/>
      <point x="637" y="378"/>
      <point x="593" y="378" type="curve"/>
      <point x="569" y="378"/>
      <point x="393" y="309"/>
      <point x="393" y="164" type="curve"/>
      <point x="393" y="54"/>
      <point x="470" y="-10"/>
      <point x="579" y="-10" type="curve"/>
      <point x="660" y="-10"/>
      <point x="732" y="31"/>
      <point x="768" y="66" type="curve"/>
    </contour>
    <component base="period" xOffset="474" yOffset="268"/>
    <component base="period" xOffset="607" yOffset="268"/>
  </outline>
</glyph>
